<svg width="28" height="28" viewBox="0 0 28 28" fill="none" xmlns="http://www.w3.org/2000/svg">
<g id="calendar 1" clip-path="url(#clip0_1234_733)">
<g id="Group">
<g id="Group_2">
<path id="Vector" d="M7.12499 0.25C6.58254 0.25 6.14282 0.68972 6.14282 1.23216V3.19643H8.10709V1.23216C8.10709 0.68972 7.66737 0.25 7.12499 0.25Z" fill="white"/>
</g>
</g>
<g id="Group_3">
<g id="Group_4">
<path id="Vector_2" d="M20.875 0.25C20.3325 0.25 19.8928 0.68972 19.8928 1.23216V3.19643H21.8571V1.23216C21.8571 0.68972 21.4174 0.25 20.875 0.25Z" fill="white"/>
</g>
</g>
<g id="Group_5">
<g id="Group_6">
<path id="Vector_3" d="M24.8036 3.19643H21.8571V7.12502C21.8571 7.66746 21.4174 8.10718 20.875 8.10718C20.3325 8.10718 19.8928 7.66746 19.8928 7.12502V3.19643H8.10712V7.12502C8.10712 7.66746 7.6674 8.10718 7.12496 8.10718C6.58252 8.10718 6.1428 7.66746 6.1428 7.12502V3.19643H3.19643C1.56916 3.19643 0.25 4.51559 0.25 6.14285V24.8036C0.25 26.4309 1.56916 27.75 3.19643 27.75H24.8036C26.4308 27.75 27.75 26.4309 27.75 24.8036V6.14285C27.75 4.51559 26.4308 3.19643 24.8036 3.19643ZM25.7857 24.8036C25.7857 25.346 25.346 25.7857 24.8035 25.7857H3.19643C2.65399 25.7857 2.21427 25.346 2.21427 24.8036V12.0357H25.7857V24.8036Z" fill="white"/>
</g>
</g>
<g id="Group_7">
<g id="Group_8">
<path id="Vector_4" d="M8.10708 14H6.14281C5.60036 14 5.16064 14.4397 5.16064 14.9822C5.16064 15.5246 5.60036 15.9643 6.14281 15.9643H8.10708C8.64952 15.9643 9.08924 15.5246 9.08924 14.9822C9.08924 14.4397 8.64952 14 8.10708 14Z" fill="white"/>
</g>
</g>
<g id="Group_9">
<g id="Group_10">
<path id="Vector_5" d="M14.9821 14H13.0178C12.4754 14 12.0356 14.4397 12.0356 14.9822C12.0356 15.5246 12.4754 15.9643 13.0178 15.9643H14.9821C15.5245 15.9643 15.9642 15.5246 15.9642 14.9822C15.9642 14.4397 15.5245 14 14.9821 14Z" fill="white"/>
</g>
</g>
<g id="Group_11">
<g id="Group_12">
<path id="Vector_6" d="M21.8571 14H19.8928C19.3504 14 18.9106 14.4397 18.9106 14.9822C18.9106 15.5246 19.3504 15.9643 19.8928 15.9643H21.8571C22.3995 15.9643 22.8392 15.5246 22.8392 14.9822C22.8392 14.4397 22.3995 14 21.8571 14Z" fill="white"/>
</g>
</g>
<g id="Group_13">
<g id="Group_14">
<path id="Vector_7" d="M8.10708 17.9286H6.14281C5.60036 17.9286 5.16064 18.3683 5.16064 18.9107C5.16064 19.4532 5.60036 19.8929 6.14281 19.8929H8.10708C8.64952 19.8929 9.08924 19.4532 9.08924 18.9107C9.08924 18.3683 8.64952 17.9286 8.10708 17.9286Z" fill="white"/>
</g>
</g>
<g id="Group_15">
<g id="Group_16">
<path id="Vector_8" d="M14.9821 17.9286H13.0178C12.4754 17.9286 12.0356 18.3683 12.0356 18.9107C12.0356 19.4532 12.4754 19.8929 13.0178 19.8929H14.9821C15.5245 19.8929 15.9642 19.4532 15.9642 18.9107C15.9642 18.3683 15.5245 17.9286 14.9821 17.9286Z" fill="white"/>
</g>
</g>
<g id="Group_17">
<g id="Group_18">
<path id="Vector_9" d="M21.8571 17.9286H19.8928C19.3504 17.9286 18.9106 18.3683 18.9106 18.9107C18.9106 19.4532 19.3504 19.8929 19.8928 19.8929H21.8571C22.3995 19.8929 22.8392 19.4532 22.8392 18.9107C22.8392 18.3683 22.3995 17.9286 21.8571 17.9286Z" fill="white"/>
</g>
</g>
<g id="Group_19">
<g id="Group_20">
<path id="Vector_10" d="M8.10708 21.8571H6.14281C5.60036 21.8571 5.16064 22.2968 5.16064 22.8393C5.16064 23.3817 5.60036 23.8214 6.14281 23.8214H8.10708C8.64952 23.8214 9.08924 23.3817 9.08924 22.8392C9.08924 22.2968 8.64952 21.8571 8.10708 21.8571Z" fill="white"/>
</g>
</g>
<g id="Group_21">
<g id="Group_22">
<path id="Vector_11" d="M14.9821 21.8571H13.0178C12.4754 21.8571 12.0356 22.2968 12.0356 22.8393C12.0356 23.3817 12.4754 23.8214 13.0178 23.8214H14.9821C15.5245 23.8214 15.9642 23.3817 15.9642 22.8393C15.9642 22.2968 15.5245 21.8571 14.9821 21.8571Z" fill="white"/>
</g>
</g>
<g id="Group_23">
<g id="Group_24">
<path id="Vector_12" d="M21.8571 21.8571H19.8928C19.3504 21.8571 18.9106 22.2968 18.9106 22.8393C18.9106 23.3817 19.3504 23.8214 19.8928 23.8214H21.8571C22.3995 23.8214 22.8392 23.3817 22.8392 22.8393C22.8392 22.2968 22.3995 21.8571 21.8571 21.8571Z" fill="white"/>
</g>
</g>
</g>
<defs>
<clipPath id="clip0_1234_733">
<rect width="27.5" height="27.5" fill="white" transform="translate(0.25 0.25)"/>
</clipPath>
</defs>
</svg>
