<svg width="82" height="93" viewBox="0 0 82 93" fill="none" xmlns="http://www.w3.org/2000/svg">
<g id="Group 5424">
<rect id="Rectangle 82" width="82" height="93" rx="8" fill="#F0C53E"/>
<g id="Group 5422">
<path id="Vector" fill-rule="evenodd" clip-rule="evenodd" d="M19.5001 67.1282C18.149 67.1282 17.05 66.2921 17.05 65.2643V42.3659C17.05 41.3381 18.149 40.5021 19.5001 40.5021H61.5001C62.8511 40.5021 63.9501 41.3381 63.9501 42.3659V65.2643C63.9501 66.2921 62.8511 67.1282 61.5001 67.1282H19.5001Z" fill="#EE5060"/>
<path id="Vector_2" fill-rule="evenodd" clip-rule="evenodd" d="M21.6001 67.9263C20.9079 67.9263 20.2312 68.0825 19.6556 68.3751C19.08 68.6676 18.6314 69.0835 18.3665 69.57C18.1016 70.0565 18.0323 70.5919 18.1674 71.1084C18.3024 71.6249 18.6357 72.0993 19.1252 72.4717C19.6147 72.8441 20.2383 73.0977 20.9173 73.2004C21.5962 73.3032 22.2999 73.2504 22.9395 73.0489C23.579 72.8474 24.1257 72.5061 24.5102 72.0682C24.8948 71.6304 25.1001 71.1156 25.1001 70.589V67.9263H21.6001Z" fill="#2C2D32"/>
<path id="Vector_3" d="M21.6 72.1875C22.7598 72.1875 23.7 71.4722 23.7 70.5898C23.7 69.7073 22.7598 68.992 21.6 68.992C20.4402 68.992 19.5 69.7073 19.5 70.5898C19.5 71.4722 20.4402 72.1875 21.6 72.1875Z" fill="#495E74"/>
<path id="Vector_4" fill-rule="evenodd" clip-rule="evenodd" d="M59.3999 67.9263C60.0921 67.9263 60.7688 68.0825 61.3444 68.3751C61.92 68.6676 62.3686 69.0835 62.6335 69.57C62.8984 70.0565 62.9677 70.5919 62.8326 71.1084C62.6976 71.6249 62.3643 72.0993 61.8748 72.4717C61.3853 72.8441 60.7616 73.0977 60.0827 73.2004C59.4038 73.3032 58.7001 73.2504 58.0605 73.0489C57.421 72.8474 56.8743 72.5061 56.4898 72.0682C56.1052 71.6304 55.8999 71.1156 55.8999 70.589V67.9263H59.3999Z" fill="#2C2D32"/>
<path id="Vector_5" d="M59.4001 72.1875C60.5599 72.1875 61.5001 71.4722 61.5001 70.5898C61.5001 69.7073 60.5599 68.992 59.4001 68.992C58.2403 68.992 57.3 69.7073 57.3 70.5898C57.3 71.4722 58.2403 72.1875 59.4001 72.1875Z" fill="#495E74"/>
<path id="Vector_6" fill-rule="evenodd" clip-rule="evenodd" d="M49.6001 39.7033V23.7277C49.6001 23.304 49.3788 22.8976 48.985 22.598C48.5912 22.2984 48.057 22.1301 47.5001 22.1301H33.5001C32.9431 22.1301 32.409 22.2984 32.0152 22.598C31.6213 22.8976 31.4001 23.304 31.4001 23.7277V39.7033H28.6001V22.6626C28.6001 21.9564 28.9688 21.2792 29.6252 20.7799C30.2816 20.2805 31.1718 20 32.1001 20H48.9001C49.8283 20 50.7186 20.2805 51.375 20.7799C52.0313 21.2792 52.4001 21.9564 52.4001 22.6626V39.7033H49.6001Z" fill="#495E74"/>
<path id="Vector_7" fill-rule="evenodd" clip-rule="evenodd" d="M52.3707 23.1952V22.4422C52.2216 21.0768 50.7341 20 48.9001 20H32.1001C31.1718 20 30.2816 20.2805 29.6252 20.7799C28.9688 21.2792 28.6001 21.9565 28.6001 22.6626V24.7927C28.6001 25.0752 28.7476 25.3461 29.0101 25.5458C29.2727 25.7456 29.6288 25.8578 30.0001 25.8578C30.3714 25.8578 30.7275 25.7456 30.99 25.5458C31.2526 25.3461 31.4001 25.0752 31.4001 24.7927V23.7277C31.4001 23.304 31.6213 22.8976 32.0152 22.598C32.409 22.2984 32.9431 22.1301 33.5001 22.1301H47.5001C48.057 22.1301 48.5912 22.2984 48.985 22.598C49.3788 22.8976 49.6001 23.304 49.6001 23.7277V24.7927C49.6001 25.0752 49.7476 25.3461 50.0101 25.5458C50.2727 25.7456 50.6288 25.8578 51.0001 25.8578C51.3714 25.8578 51.7275 25.7456 51.99 25.5458C52.2526 25.3461 52.4001 25.0752 52.4001 24.7927V23.1952H52.3707Z" fill="#2C2D32"/>
<path id="Vector_8" fill-rule="evenodd" clip-rule="evenodd" d="M49.6294 39.7033H55.242L59.4 42.8665L46.7517 52.4886L39.7874 47.1905L49.6294 39.7033Z" fill="#EBECED"/>
<path id="Vector_9" fill-rule="evenodd" clip-rule="evenodd" d="M28.6001 39.7033H31.4001V64.7319H28.6001V39.7033ZM49.6001 39.7033H52.4001V64.7319H49.6001V39.7033Z" fill="#B25A59"/>
<path id="Vector_10" fill-rule="evenodd" clip-rule="evenodd" d="M31.3999 52.4838H28.5999C28.2286 52.4838 27.8725 52.596 27.61 52.7958C27.3475 52.9956 27.2 53.2665 27.2 53.549V55.6793C27.2 55.9618 27.3475 56.2328 27.61 56.4325C27.8725 56.6323 28.2286 56.7445 28.5999 56.7445H31.3999C31.7712 56.7445 32.1273 56.6323 32.3899 56.4325C32.6524 56.2328 32.7999 55.9618 32.7999 55.6793V53.549C32.7999 53.2665 32.6524 52.9956 32.3899 52.7958C32.1273 52.596 31.7712 52.4838 31.3999 52.4838ZM31.3999 55.6793H28.5999V53.549H31.3999V55.6793Z" fill="#F0C419"/>
<path id="Vector_11" fill-rule="evenodd" clip-rule="evenodd" d="M51.0001 62.6017L49.6001 61.5367V67.9269H52.4001V61.5367L51.0001 62.6017ZM28.6001 61.5367V67.9269H31.4001V61.5367L30.0001 62.6017L28.6001 61.5367ZM30.0001 52.4838C30.1857 52.4838 30.3638 52.4277 30.4951 52.3279C30.6263 52.228 30.7001 52.0925 30.7001 51.9513C30.7001 51.8101 30.6263 51.6746 30.4951 51.5748C30.3638 51.4749 30.1857 51.4188 30.0001 51.4188C29.8144 51.4188 29.6364 51.4749 29.5051 51.5748C29.3738 51.6746 29.3001 51.8101 29.3001 51.9513C29.3001 52.0925 29.3738 52.228 29.5051 52.3279C29.6364 52.4277 29.8144 52.4838 30.0001 52.4838ZM30.0001 49.8212C30.1857 49.8212 30.3638 49.7651 30.4951 49.6653C30.6263 49.5654 30.7001 49.4299 30.7001 49.2887C30.7001 49.1475 30.6263 49.012 30.4951 48.9122C30.3638 48.8123 30.1857 48.7562 30.0001 48.7562C29.8144 48.7562 29.6364 48.8123 29.5051 48.9122C29.3738 49.012 29.3001 49.1475 29.3001 49.2887C29.3001 49.4299 29.3738 49.5654 29.5051 49.6653C29.6364 49.7651 29.8144 49.8212 30.0001 49.8212ZM30.0001 47.1586C30.1857 47.1586 30.3638 47.1025 30.4951 47.0026C30.6263 46.9028 30.7001 46.7673 30.7001 46.6261C30.7001 46.4849 30.6263 46.3494 30.4951 46.2495C30.3638 46.1497 30.1857 46.0936 30.0001 46.0936C29.8144 46.0936 29.6364 46.1497 29.5051 46.2495C29.3738 46.3494 29.3001 46.4849 29.3001 46.6261C29.3001 46.7673 29.3738 46.9028 29.5051 47.0026C29.6364 47.1025 29.8144 47.1586 30.0001 47.1586ZM30.0001 44.496C30.1857 44.496 30.3638 44.4399 30.4951 44.34C30.6263 44.2402 30.7001 44.1047 30.7001 43.9635C30.7001 43.8223 30.6263 43.6868 30.4951 43.5869C30.3638 43.4871 30.1857 43.431 30.0001 43.431C29.8144 43.431 29.6364 43.4871 29.5051 43.5869C29.3738 43.6868 29.3001 43.8223 29.3001 43.9635C29.3001 44.1047 29.3738 44.2402 29.5051 44.34C29.6364 44.4399 29.8144 44.496 30.0001 44.496ZM51.0001 52.4838C51.1857 52.4838 51.3638 52.4277 51.4951 52.3279C51.6263 52.228 51.7001 52.0925 51.7001 51.9513C51.7001 51.8101 51.6263 51.6746 51.4951 51.5748C51.3638 51.4749 51.1857 51.4188 51.0001 51.4188C50.8144 51.4188 50.6364 51.4749 50.5051 51.5748C50.3738 51.6746 50.3001 51.8101 50.3001 51.9513C50.3001 52.0925 50.3738 52.228 50.5051 52.3279C50.6364 52.4277 50.8144 52.4838 51.0001 52.4838ZM51.0001 49.8212C51.1857 49.8212 51.3638 49.7651 51.4951 49.6653C51.6263 49.5654 51.7001 49.4299 51.7001 49.2887C51.7001 49.1475 51.6263 49.012 51.4951 48.9122C51.3638 48.8123 51.1857 48.7562 51.0001 48.7562C50.8144 48.7562 50.6364 48.8123 50.5051 48.9122C50.3738 49.012 50.3001 49.1475 50.3001 49.2887C50.3001 49.4299 50.3738 49.5654 50.5051 49.6653C50.6364 49.7651 50.8144 49.8212 51.0001 49.8212ZM51.0001 47.1586C51.1857 47.1586 51.3638 47.1025 51.4951 47.0026C51.6263 46.9028 51.7001 46.7673 51.7001 46.6261C51.7001 46.4849 51.6263 46.3494 51.4951 46.2495C51.3638 46.1497 51.1857 46.0936 51.0001 46.0936C50.8144 46.0936 50.6364 46.1497 50.5051 46.2495C50.3738 46.3494 50.3001 46.4849 50.3001 46.6261C50.3001 46.7673 50.3738 46.9028 50.5051 47.0026C50.6364 47.1025 50.8144 47.1586 51.0001 47.1586ZM51.0001 44.496C51.1857 44.496 51.3638 44.4399 51.4951 44.34C51.6263 44.2402 51.7001 44.1047 51.7001 43.9635C51.7001 43.8223 51.6263 43.6868 51.4951 43.5869C51.3638 43.4871 51.1857 43.431 51.0001 43.431C50.8144 43.431 50.6364 43.4871 50.5051 43.5869C50.3738 43.6868 50.3001 43.8223 50.3001 43.9635C50.3001 44.1047 50.3738 44.2402 50.5051 44.34C50.6364 44.4399 50.8144 44.496 51.0001 44.496ZM30.0001 55.1464C30.1857 55.1464 30.3638 55.0903 30.4951 54.9905C30.6263 54.8906 30.7001 54.7551 30.7001 54.6139C30.7001 54.4727 30.6263 54.3372 30.4951 54.2374C30.3638 54.1375 30.1857 54.0814 30.0001 54.0814C29.8144 54.0814 29.6364 54.1375 29.5051 54.2374C29.3738 54.3372 29.3001 54.4727 29.3001 54.6139C29.3001 54.7551 29.3738 54.8906 29.5051 54.9905C29.6364 55.0903 29.8144 55.1464 30.0001 55.1464ZM51.0001 55.1464C51.1857 55.1464 51.3638 55.0903 51.4951 54.9905C51.6263 54.8906 51.7001 54.7551 51.7001 54.6139C51.7001 54.4727 51.6263 54.3372 51.4951 54.2374C51.3638 54.1375 51.1857 54.0814 51.0001 54.0814C50.8144 54.0814 50.6364 54.1375 50.5051 54.2374C50.3738 54.3372 50.3001 54.4727 50.3001 54.6139C50.3001 54.7551 50.3738 54.8906 50.5051 54.9905C50.6364 55.0903 50.8144 55.1464 51.0001 55.1464Z" fill="#90241D"/>
<path id="Vector_12" fill-rule="evenodd" clip-rule="evenodd" d="M31.4002 53.549V55.6793H28.6002L27.6104 56.4324C27.8638 56.6252 28.2138 56.7445 28.6002 56.7445H31.4002C31.7715 56.7445 32.1276 56.6323 32.3901 56.4325C32.6527 56.2328 32.8002 55.9618 32.8002 55.6793V53.549C32.8002 53.255 32.6434 52.9887 32.39 52.7959L31.4002 53.549Z" fill="#FCF062"/>
<path id="Vector_13" fill-rule="evenodd" clip-rule="evenodd" d="M52.3999 52.4838H49.5999C49.2286 52.4838 48.8725 52.596 48.61 52.7958C48.3474 52.9956 48.2 53.2665 48.2 53.549V55.6793C48.2 55.9618 48.3474 56.2328 48.61 56.4325C48.8725 56.6323 49.2286 56.7445 49.5999 56.7445H52.3999C52.7712 56.7445 53.1273 56.6323 53.3899 56.4325C53.6524 56.2328 53.7999 55.9618 53.7999 55.6793V53.549C53.7999 53.2665 53.6524 52.9956 53.3899 52.7958C53.1273 52.596 52.7712 52.4838 52.3999 52.4838ZM52.3999 55.6793H49.5999V53.549H52.3999V55.6793Z" fill="#F0C419"/>
<path id="Vector_14" fill-rule="evenodd" clip-rule="evenodd" d="M52.4002 53.549V55.6793H49.6002L48.6104 56.4324C48.8638 56.6252 49.2138 56.7445 49.6002 56.7445H52.4002C52.7715 56.7445 53.1276 56.6323 53.3901 56.4325C53.6527 56.2328 53.8002 55.9618 53.8002 55.6793V53.549C53.8002 53.255 53.6434 52.9887 53.39 52.7959L52.4002 53.549Z" fill="#FCF062"/>
<path id="Vector_15" d="M61.5 41.3009C62.2721 41.3009 62.9 41.7785 62.9 42.3659V65.2643C62.9 65.8517 62.2721 66.3294 61.5 66.3294H19.5C18.7279 66.3294 18.1 65.8517 18.1 65.2643V42.3659C18.1 41.7785 18.7279 41.3009 19.5 41.3009H61.5ZM61.5 39.7033H19.5C18.5717 39.7033 17.6815 39.9838 17.0251 40.4832C16.3687 40.9825 16 41.6597 16 42.3659V65.2643C16 65.9705 16.3687 66.6477 17.0251 67.1471C17.6815 67.6464 18.5717 67.9269 19.5 67.9269H61.5C62.4283 67.9269 63.3185 67.6464 63.9749 67.1471C64.6313 66.6477 65 65.9705 65 65.2643V42.3659C65 41.6597 64.6313 40.9825 63.9749 40.4832C63.3185 39.9838 62.4283 39.7033 61.5 39.7033Z" fill="#B25A59"/>
</g>
</g>
</svg>
