<svg width="208" height="83" viewBox="0 0 208 83" fill="none" xmlns="http://www.w3.org/2000/svg">
<g id="Group 5420">
<path id="Polygon 1" d="M37.2574 4.24264C39.6005 1.8995 43.3995 1.8995 45.7426 4.24264L78.7574 37.2574C81.1005 39.6005 81.1005 43.3995 78.7574 45.7426L45.7426 78.7574C43.3995 81.1005 39.6005 81.1005 37.2574 78.7574L4.24264 45.7426C1.8995 43.3995 1.8995 39.6005 4.24264 37.2574L37.2574 4.24264Z" fill="#F0C53E"/>
<path id="Polygon 3" d="M120.257 4.24264C122.601 1.8995 126.399 1.8995 128.743 4.24264L161.757 37.2574C164.101 39.6005 164.101 43.3995 161.757 45.7426L128.743 78.7574C126.399 81.1005 122.601 81.1005 120.257 78.7574L87.2426 45.7426C84.8995 43.3995 84.8995 39.6005 87.2426 37.2574L120.257 4.24264Z" fill="#F0C53E"/>
<path id="Polygon 2" d="M79.2574 4.24264C81.6005 1.8995 85.3995 1.8995 87.7426 4.24264L120.757 37.2574C123.101 39.6005 123.101 43.3995 120.757 45.7426L87.7426 78.7574C85.3995 81.1005 81.6005 81.1005 79.2574 78.7574L46.2426 45.7426C43.8995 43.3995 43.8995 39.6005 46.2426 37.2574L79.2574 4.24264Z" fill="#F0C53E"/>
<path id="Polygon 4" d="M162.257 4.24264C164.601 1.8995 168.399 1.8995 170.743 4.24264L203.757 37.2574C206.101 39.6005 206.101 43.3995 203.757 45.7426L170.743 78.7574C168.399 81.1005 164.601 81.1005 162.257 78.7574L129.243 45.7426C126.899 43.3995 126.899 39.6005 129.243 37.2574L162.257 4.24264Z" fill="#F0C53E"/>
</g>
</svg>
