<svg width="281" height="27" viewBox="0 0 281 27" fill="none" xmlns="http://www.w3.org/2000/svg">
<path d="M115.2 20V7.32H110.08V5.9H121.98V7.32H116.86V20H115.2ZM127.771 20V5.9H136.671V7.28H129.371V12.16H136.251V13.54H129.371V18.62H136.671V20H127.771ZM147.796 20.18C146.689 20.18 145.689 20.04 144.796 19.76C143.903 19.4667 143.129 19.0467 142.476 18.5L143.056 17.18C143.736 17.7 144.449 18.0867 145.196 18.34C145.943 18.5933 146.809 18.72 147.796 18.72C148.996 18.72 149.883 18.5 150.456 18.06C151.043 17.6067 151.336 17.0133 151.336 16.28C151.336 15.6933 151.123 15.2267 150.696 14.88C150.283 14.5333 149.583 14.26 148.596 14.06L146.516 13.64C145.263 13.3733 144.323 12.94 143.696 12.34C143.083 11.7267 142.776 10.9133 142.776 9.9C142.776 9.06 142.989 8.32667 143.416 7.7C143.856 7.07333 144.463 6.58667 145.236 6.24C146.009 5.89333 146.903 5.72 147.916 5.72C148.863 5.72 149.743 5.87333 150.556 6.18C151.369 6.47333 152.056 6.9 152.616 7.46L152.036 8.74C151.436 8.19333 150.803 7.8 150.136 7.56C149.469 7.30667 148.723 7.18 147.896 7.18C146.843 7.18 146.003 7.42667 145.376 7.92C144.749 8.4 144.436 9.04 144.436 9.84C144.436 10.48 144.629 10.9867 145.016 11.36C145.416 11.7333 146.063 12.0067 146.956 12.18L149.036 12.62C150.383 12.9 151.376 13.3267 152.016 13.9C152.669 14.46 152.996 15.2267 152.996 16.2C152.996 16.9867 152.783 17.68 152.356 18.28C151.943 18.88 151.343 19.3467 150.556 19.68C149.783 20.0133 148.863 20.18 147.796 20.18ZM162.708 20V7.32H157.588V5.9H169.488V7.32H164.368V20H162.708ZM175.279 20V5.9H176.919V20H175.279ZM184.436 20V5.9H185.816L191.236 16.08L196.616 5.9H197.996V20H196.476V8.98L191.776 17.82H190.696L185.936 9V20H184.436ZM211.426 20.18C210.119 20.18 208.979 19.8867 208.006 19.3C207.046 18.7 206.299 17.86 205.766 16.78C205.246 15.7 204.986 14.42 204.986 12.94C204.986 11.46 205.246 10.18 205.766 9.1C206.286 8.02 207.026 7.18667 207.986 6.6C208.959 6.01333 210.106 5.72 211.426 5.72C212.759 5.72 213.906 6.01333 214.866 6.6C215.839 7.18667 216.586 8.02 217.106 9.1C217.639 10.1667 217.906 11.44 217.906 12.92C217.906 14.4 217.639 15.6867 217.106 16.78C216.572 17.86 215.819 18.7 214.846 19.3C213.886 19.8867 212.746 20.18 211.426 20.18ZM211.426 18.72C212.932 18.72 214.099 18.2133 214.926 17.2C215.752 16.1867 216.166 14.7667 216.166 12.94C216.166 11.1133 215.752 9.7 214.926 8.7C214.099 7.68667 212.932 7.18 211.426 7.18C209.946 7.18 208.792 7.68667 207.966 8.7C207.139 9.7 206.726 11.1133 206.726 12.94C206.726 14.7533 207.139 16.1733 207.966 17.2C208.792 18.2133 209.946 18.72 211.426 18.72ZM224.838 20V5.9H226.118L234.618 17.24V5.9H236.138V20H234.898L226.378 8.62V20H224.838ZM243.642 20V5.9H245.282V20H243.642ZM251.4 20L257.62 5.9H259.02L265.24 20H263.54L261.98 16.4H254.64L253.1 20H251.4ZM258.3 7.82L255.24 15.02H261.4L258.34 7.82H258.3ZM271.33 20V5.9H272.97V18.56H280.15V20H271.33Z" fill="#2C2D32"/>
<line y1="13.5" x2="80" y2="13.5" stroke="#2C2D32"/>
</svg>
