<svg width="180" height="180" viewBox="0 0 180 180" fill="none" xmlns="http://www.w3.org/2000/svg">
<g id="Group 5432">
<g id="Ellipse 5" filter="url(#filter0_d_47_6)">
<circle cx="90" cy="80" r="50" fill="#EE5060"/>
</g>
<path id="Vector" d="M110.61 72.4373L97.7196 70.5667L91.9572 58.9023C91.7998 58.583 91.5409 58.3245 91.221 58.1673C90.4189 57.7719 89.4441 58.1014 89.043 58.9023L83.2806 70.5667L70.39 72.4373C70.0346 72.488 69.7097 72.6552 69.4609 72.9087C69.1602 73.2174 68.9944 73.6326 69.0001 74.0632C69.0059 74.4938 69.1825 74.9045 69.4914 75.2051L78.8179 84.2841L76.6144 97.1043C76.5628 97.4025 76.5958 97.7092 76.7098 97.9896C76.8239 98.2701 77.0143 98.513 77.2596 98.6908C77.5048 98.8687 77.7951 98.9744 78.0974 98.9959C78.3998 99.0174 78.7021 98.9539 78.9702 98.8126L90.5001 92.7599L102.03 98.8126C102.345 98.9799 102.71 99.0357 103.061 98.9748C103.944 98.8228 104.538 97.9863 104.386 97.1043L102.182 84.2841L111.509 75.2051C111.763 74.9567 111.93 74.6323 111.981 74.2774C112.118 73.3903 111.499 72.5691 110.61 72.4373Z" fill="white"/>
</g>
<defs>
<filter id="filter0_d_47_6" x="0" y="0" width="180" height="180" filterUnits="userSpaceOnUse" color-interpolation-filters="sRGB">
<feFlood flood-opacity="0" result="BackgroundImageFix"/>
<feColorMatrix in="SourceAlpha" type="matrix" values="0 0 0 0 0 0 0 0 0 0 0 0 0 0 0 0 0 0 127 0" result="hardAlpha"/>
<feOffset dy="10"/>
<feGaussianBlur stdDeviation="20"/>
<feColorMatrix type="matrix" values="0 0 0 0 0.212 0 0 0 0 0.238778 0 0 0 0 0.533333 0 0 0 0.06 0"/>
<feBlend mode="normal" in2="BackgroundImageFix" result="effect1_dropShadow_47_6"/>
<feBlend mode="normal" in="SourceGraphic" in2="effect1_dropShadow_47_6" result="shape"/>
</filter>
</defs>
</svg>
