<svg width="180" height="180" viewBox="0 0 180 180" fill="none" xmlns="http://www.w3.org/2000/svg">
<g filter="url(#filter0_d_47_7)">
<circle cx="90" cy="74" r="50" fill="#F0C53E"/>
</g>
<g clip-path="url(#clip0_47_7)">
<path d="M89.5 97C86.4531 97 83.5381 96.4067 80.7549 95.2202C77.9717 94.0337 75.5767 92.437 73.5698 90.4302C71.563 88.4233 69.9663 86.0283 68.7798 83.2451C67.5933 80.4619 67 77.5469 67 74.5C67 71.4531 67.5933 68.5381 68.7798 65.7549C69.9663 62.9717 71.563 60.5767 73.5698 58.5698C75.5767 56.563 77.9717 54.9663 80.7549 53.7798C83.5381 52.5933 86.4531 52 89.5 52C92.5469 52 95.4619 52.5933 98.2451 53.7798C101.028 54.9663 103.423 56.563 105.43 58.5698C107.437 60.5767 109.034 62.9717 110.22 65.7549C111.407 68.5381 112 71.4531 112 74.5C112 77.5469 111.407 80.4619 110.22 83.2451C109.034 86.0283 107.437 88.4233 105.43 90.4302C103.423 92.437 101.028 94.0337 98.2451 95.2202C95.4619 96.4067 92.5469 97 89.5 97ZM79.876 64.876L77.7666 63.0303C77.4443 63.0303 77.0635 63.0669 76.624 63.1401C76.1846 63.2134 75.7891 63.25 75.4375 63.25C75.4082 63.2207 75.1445 62.6787 74.6465 61.624C71.4238 65.3447 69.8125 69.6367 69.8125 74.5C69.8125 74.5879 69.8198 74.7051 69.8345 74.8516C69.8491 74.998 69.8564 75.1006 69.8564 75.1592C70.0322 75.335 70.4644 75.6646 71.1528 76.1479C71.8413 76.6313 72.332 77.0195 72.625 77.3125H75.4375C75.5254 77.2539 75.606 77.21 75.6792 77.1807C75.7524 77.1514 75.833 77.1221 75.9209 77.0928C75.6279 76.7705 75.1958 76.2944 74.6245 75.6646C74.0532 75.0347 73.6211 74.5732 73.3281 74.2803C73.4453 73.6064 73.6064 72.5884 73.8115 71.2261C74.0166 69.8638 74.1631 68.8457 74.251 68.1719C76.7705 67.1172 78.6455 66.3408 79.876 65.8428V64.876ZM88.709 57.7129C88.2988 57.5371 87.918 57.376 87.5664 57.2295C87.4785 56.9951 87.4199 56.8193 87.3906 56.7021C87.2148 57.2588 86.9365 58.0938 86.5557 59.207C86.6729 59.2363 86.8413 59.2656 87.061 59.2949C87.2808 59.3242 87.4492 59.3535 87.5664 59.3828H88.709V57.7129ZM88.5332 78.4111C88.3867 78.5576 88.2842 78.6748 88.2256 78.7627C87.874 79.3779 87.376 80.3154 86.7314 81.5752C86.0869 82.835 85.6035 83.7725 85.2812 84.3877C85.6914 85.0029 86.314 85.9404 87.1489 87.2002C87.9839 88.46 88.6064 89.3975 89.0166 90.0127C92.8252 90.2471 95.7109 90.4229 97.6738 90.54C97.7324 91.2725 97.9668 91.7705 98.377 92.0342C101.043 90.6865 103.299 88.8188 105.145 86.4312C106.99 84.0435 108.206 81.3701 108.792 78.4111C108.235 78.2939 107.627 78.1328 106.968 77.9277C106.309 77.7227 105.833 77.5835 105.54 77.5103C105.247 77.437 104.668 77.3638 103.804 77.2905C102.94 77.2173 102.039 77.2686 101.102 77.4443C100.75 77.4736 100.523 77.2466 100.42 76.7632C100.318 76.2798 100.267 75.7817 100.267 75.269C100.267 74.7563 100.208 74.4854 100.091 74.4561C99.4463 74.3389 98.1426 74.4487 96.1797 74.7856C94.2168 75.1226 92.9131 75.2324 92.2686 75.1152C91.8877 75.4668 90.6426 76.5654 88.5332 78.4111ZM91.126 56.3945C91.0381 56.9805 90.8843 57.8594 90.6646 59.0312C90.4448 60.2031 90.2764 61.0967 90.1592 61.7119C90.3057 61.6826 90.5474 61.646 90.8843 61.6021C91.2212 61.5581 91.4629 61.5361 91.6094 61.5361C91.5215 61.4775 91.4189 61.4189 91.3018 61.3604C91.7412 61.2139 92.0635 61.0967 92.2686 61.0088C91.7705 58.958 91.3896 57.4199 91.126 56.3945ZM96.2236 55.999C96.165 56.3213 96.1357 56.7754 96.1357 57.3613C96.1357 57.9473 95.9893 58.7236 95.6963 59.6904C95.7256 59.749 95.7842 59.8076 95.8721 59.8662C96.458 59.8076 97.4395 59.7051 98.8164 59.5586C98.8164 58.9434 99.124 58.3281 99.7393 57.7129C98.626 57.0391 97.4541 56.4678 96.2236 55.999ZM101.717 59.0752C101.658 59.1924 101.556 59.3535 101.409 59.5586C101.966 59.6465 102.332 59.7197 102.508 59.7783C102.156 59.4561 101.893 59.2217 101.717 59.0752ZM102.903 60.1299C102.815 60.3057 102.676 60.5693 102.486 60.9209C102.295 61.2725 102.156 61.5361 102.068 61.7119C101.219 61.7412 100.076 61.7852 98.6406 61.8438L98.4648 60.3496C98.4062 60.3789 98.3037 60.4155 98.1572 60.4595C98.0107 60.5034 97.8936 60.5254 97.8057 60.5254V62.6787C97.1904 62.7373 96.2456 62.8252 94.9712 62.9424C93.6968 63.0596 92.752 63.1475 92.1367 63.2061C91.9316 63.499 91.7119 63.8213 91.4775 64.1729C92.2686 65.8721 92.8691 67.1465 93.2793 67.9961C92.6934 68.1426 91.4922 68.4648 89.6758 68.9629V70.457C89.6758 70.5156 89.6978 70.6035 89.7417 70.7207C89.7856 70.8379 89.8223 70.9258 89.8516 70.9844C90.3496 71.2188 91.126 71.5703 92.1807 72.0391C93.2354 72.5078 94.0264 72.874 94.5537 73.1377L95.5205 71.9512C95.4912 71.6582 95.418 71.1968 95.3008 70.5669C95.1836 69.937 95.0957 69.4609 95.0371 69.1387C95.125 69.0801 95.2642 68.9995 95.4546 68.897C95.645 68.7944 95.7842 68.7139 95.8721 68.6553C96.6631 68.4209 97.2637 68.2598 97.6738 68.1719C98.0547 68.7871 98.5894 69.666 99.2778 70.8086C99.9663 71.9512 100.398 72.6689 100.574 72.9619C100.838 72.7275 101.204 72.3687 101.673 71.8853C102.142 71.4019 102.493 71.043 102.728 70.8086C101.146 69.6953 100.105 68.9775 99.6074 68.6553C99.6367 68.4209 99.6953 68.084 99.7832 67.6445H101.409C103.05 69.0508 104.734 70.4863 106.463 71.9512C106.492 71.9512 106.521 71.9292 106.551 71.8853C106.58 71.8413 106.609 71.8193 106.639 71.8193C106.521 71.585 106.141 70.8672 105.496 69.666C105.496 69.6367 105.54 69.5781 105.628 69.4902L105.804 69.3145H107.605C107.635 69.2852 107.884 69.1533 108.353 68.9189C107.356 65.5205 105.54 62.5908 102.903 60.1299Z" fill="white"/>
</g>
<defs>
<filter id="filter0_d_47_7" x="0" y="0" width="180" height="180" filterUnits="userSpaceOnUse" color-interpolation-filters="sRGB">
<feFlood flood-opacity="0" result="BackgroundImageFix"/>
<feColorMatrix in="SourceAlpha" type="matrix" values="0 0 0 0 0 0 0 0 0 0 0 0 0 0 0 0 0 0 127 0" result="hardAlpha"/>
<feOffset dy="16"/>
<feGaussianBlur stdDeviation="20"/>
<feColorMatrix type="matrix" values="0 0 0 0 0.146118 0 0 0 0 0.172389 0 0 0 0 0.441667 0 0 0 0.1 0"/>
<feBlend mode="normal" in2="BackgroundImageFix" result="effect1_dropShadow_47_7"/>
<feBlend mode="normal" in="SourceGraphic" in2="effect1_dropShadow_47_7" result="shape"/>
</filter>
<clipPath id="clip0_47_7">
<rect width="45" height="45" fill="white" transform="translate(67 52)"/>
</clipPath>
</defs>
</svg>
